<svg width="16" height="16" viewBox="0 0 16 16" fill="none" xmlns="http://www.w3.org/2000/svg">
<path fill-rule="evenodd" clip-rule="evenodd" d="M5.08329 8.41659H4.24996V9.24992H5.08329V8.41659ZM4.24996 7.58325C4.02895 7.58325 3.81698 7.67105 3.6607 7.82733C3.50442 7.98361 3.41663 8.19557 3.41663 8.41659V9.24992C3.41663 9.47093 3.50442 9.68289 3.6607 9.83917C3.81698 9.99545 4.02895 10.0833 4.24996 10.0833H5.08329C5.30431 10.0833 5.51627 9.99545 5.67255 9.83917C5.82883 9.68289 5.91663 9.47093 5.91663 9.24992V8.41659C5.91663 8.19557 5.82883 7.98361 5.67255 7.82733C5.51627 7.67105 5.30431 7.58325 5.08329 7.58325H4.24996ZM8.41663 8.41659H7.58329V9.24992H8.41663V8.41659ZM7.58329 7.58325C7.36228 7.58325 7.15032 7.67105 6.99404 7.82733C6.83776 7.98361 6.74996 8.19557 6.74996 8.41659V9.24992C6.74996 9.47093 6.83776 9.68289 6.99404 9.83917C7.15032 9.99545 7.36228 10.0833 7.58329 10.0833H8.41663C8.63764 10.0833 8.8496 9.99545 9.00588 9.83917C9.16216 9.68289 9.24996 9.47093 9.24996 9.24992V8.41659C9.24996 8.19557 9.16216 7.98361 9.00588 7.82733C8.8496 7.67105 8.63764 7.58325 8.41663 7.58325H7.58329ZM11.75 8.41659H10.9166V9.24992H11.75V8.41659ZM10.9166 7.58325C10.6956 7.58325 10.4837 7.67105 10.3274 7.82733C10.1711 7.98361 10.0833 8.19557 10.0833 8.41659V9.24992C10.0833 9.47093 10.1711 9.68289 10.3274 9.83917C10.4837 9.99545 10.6956 10.0833 10.9166 10.0833H11.75C11.971 10.0833 12.1829 9.99545 12.3392 9.83917C12.4955 9.68289 12.5833 9.47093 12.5833 9.24992V8.41659C12.5833 8.19557 12.4955 7.98361 12.3392 7.82733C12.1829 7.67105 11.971 7.58325 11.75 7.58325H10.9166ZM5.08329 11.7499H4.24996V12.5833H5.08329V11.7499ZM4.24996 10.9166C4.02895 10.9166 3.81698 11.0044 3.6607 11.1607C3.50442 11.3169 3.41663 11.5289 3.41663 11.7499V12.5833C3.41663 12.8043 3.50442 13.0162 3.6607 13.1725C3.81698 13.3288 4.02895 13.4166 4.24996 13.4166H5.08329C5.30431 13.4166 5.51627 13.3288 5.67255 13.1725C5.82883 13.0162 5.91663 12.8043 5.91663 12.5833V11.7499C5.91663 11.5289 5.82883 11.3169 5.67255 11.1607C5.51627 11.0044 5.30431 10.9166 5.08329 10.9166H4.24996ZM8.41663 11.7499H7.58329V12.5833H8.41663V11.7499ZM7.58329 10.9166C7.36228 10.9166 7.15032 11.0044 6.99404 11.1607C6.83776 11.3169 6.74996 11.5289 6.74996 11.7499V12.5833C6.74996 12.8043 6.83776 13.0162 6.99404 13.1725C7.15032 13.3288 7.36228 13.4166 7.58329 13.4166H8.41663C8.63764 13.4166 8.8496 13.3288 9.00588 13.1725C9.16216 13.0162 9.24996 12.8043 9.24996 12.5833V11.7499C9.24996 11.5289 9.16216 11.3169 9.00588 11.1607C8.8496 11.0044 8.63764 10.9166 8.41663 10.9166H7.58329ZM11.75 11.7499H10.9166V12.5833H11.75V11.7499ZM10.9166 10.9166C10.6956 10.9166 10.4837 11.0044 10.3274 11.1607C10.1711 11.3169 10.0833 11.5289 10.0833 11.7499V12.5833C10.0833 12.8043 10.1711 13.0162 10.3274 13.1725C10.4837 13.3288 10.6956 13.4166 10.9166 13.4166H11.75C11.971 13.4166 12.1829 13.3288 12.3392 13.1725C12.4955 13.0162 12.5833 12.8043 12.5833 12.5833V11.7499C12.5833 11.5289 12.4955 11.3169 12.3392 11.1607C12.1829 11.0044 11.971 10.9166 11.75 10.9166H10.9166Z" fill="#0076DC"/>
<path fill-rule="evenodd" clip-rule="evenodd" d="M2.16663 2.58333C2.05612 2.58333 1.95014 2.62723 1.872 2.70537C1.79386 2.78351 1.74996 2.88949 1.74996 3V14.25C1.74996 14.3605 1.79386 14.4665 1.872 14.5446C1.95014 14.6228 2.05612 14.6667 2.16663 14.6667H13.8333C14.0625 14.6667 14.25 14.4796 14.25 14.2492V3.00083C14.25 2.77 14.0625 2.58333 13.8333 2.58333H12.5833V1.75H13.8333C14.5241 1.75 15.0833 2.31125 15.0833 3.00083V14.2492C15.0834 14.4134 15.0512 14.576 14.9884 14.7278C14.9256 14.8795 14.8336 15.0174 14.7175 15.1336C14.6014 15.2498 14.4636 15.3419 14.3118 15.4048C14.1601 15.4676 13.9975 15.5 13.8333 15.5H2.16663C1.83511 15.5 1.51716 15.3683 1.28274 15.1339C1.04832 14.8995 0.916626 14.5815 0.916626 14.25V3C0.916626 2.66848 1.04832 2.35054 1.28274 2.11612C1.51716 1.8817 1.83511 1.75 2.16663 1.75H4.24996V2.58333H2.16663ZM10.9166 2.58333H5.91663V1.75H10.9166V2.58333Z" fill="#0076DC"/>
<path fill-rule="evenodd" clip-rule="evenodd" d="M14.25 6.33333H1.75V5.5H14.25V6.33333Z" fill="#0076DC"/>
<path d="M4.25 0.916667C4.25 0.80616 4.2939 0.700179 4.37204 0.622039C4.45018 0.543899 4.55616 0.5 4.66667 0.5C4.77717 0.5 4.88315 0.543899 4.96129 0.622039C5.03943 0.700179 5.08333 0.80616 5.08333 0.916667V3.83333C5.08333 3.94384 5.03943 4.04982 4.96129 4.12796C4.88315 4.2061 4.77717 4.25 4.66667 4.25C4.55616 4.25 4.45018 4.2061 4.37204 4.12796C4.2939 4.04982 4.25 3.94384 4.25 3.83333V0.916667ZM10.9167 0.916667C10.9167 0.80616 10.9606 0.700179 11.0387 0.622039C11.1168 0.543899 11.2228 0.5 11.3333 0.5C11.4438 0.5 11.5498 0.543899 11.628 0.622039C11.7061 0.700179 11.75 0.80616 11.75 0.916667V3.83333C11.75 3.94384 11.7061 4.04982 11.628 4.12796C11.5498 4.2061 11.4438 4.25 11.3333 4.25C11.2228 4.25 11.1168 4.2061 11.0387 4.12796C10.9606 4.04982 10.9167 3.94384 10.9167 3.83333V0.916667Z" fill="#0076DC"/>
</svg>
