<svg width="14" height="14" viewBox="0 0 14 14" fill="none" xmlns="http://www.w3.org/2000/svg">
<path d="M1 5.21622H12.3514M3.66659 2.2973V1M9.66659 2.2973V1M10.0811 2.2973H3.27027C2.66816 2.2973 2.09071 2.53649 1.66495 2.96224C1.23919 3.388 1 3.96545 1 4.56757V10.7297C1 11.3318 1.23919 11.9093 1.66495 12.3351C2.09071 12.7608 2.66816 13 3.27027 13H10.0811C10.6832 13 11.2606 12.7608 11.6864 12.3351C12.1122 11.9093 12.3514 11.3318 12.3514 10.7297V4.56757C12.3514 3.96545 12.1122 3.388 11.6864 2.96224C11.2606 2.53649 10.6832 2.2973 10.0811 2.2973Z" stroke="#999999" stroke-width="1.5" stroke-linecap="round" stroke-linejoin="round"/>
</svg>
