<svg width="11" height="12" viewBox="0 0 11 12" fill="none" xmlns="http://www.w3.org/2000/svg">
<path d="M9.42857 0.857143C9.42857 2.02232 9.19085 3.05246 8.7154 3.94754C8.23996 4.84263 7.64509 5.52679 6.9308 6C7.64509 6.47321 8.23996 7.15737 8.7154 8.05246C9.19085 8.94755 9.42857 9.97768 9.42857 11.1429H10.0714C10.1339 11.1429 10.1853 11.1629 10.2254 11.2031C10.2656 11.2433 10.2857 11.2946 10.2857 11.3571V11.7857C10.2857 11.8482 10.2656 11.8996 10.2254 11.9397C10.1853 11.9799 10.1339 12 10.0714 12H0.214286C0.151786 12 0.100446 11.9799 0.0602679 11.9397C0.0200893 11.8996 0 11.8482 0 11.7857V11.3571C0 11.2946 0.0200893 11.2433 0.0602679 11.2031C0.100446 11.1629 0.151786 11.1429 0.214286 11.1429H0.857143C0.857143 9.97768 1.09487 8.94755 1.57031 8.05246C2.04576 7.15737 2.64063 6.47321 3.35491 6C2.64063 5.52679 2.04576 4.84263 1.57031 3.94754C1.09487 3.05246 0.857143 2.02232 0.857143 0.857143H0.214286C0.151786 0.857143 0.100446 0.837054 0.0602679 0.796875C0.0200893 0.756696 0 0.705357 0 0.642857V0.214286C0 0.151786 0.0200893 0.100446 0.0602679 0.0602679C0.100446 0.0200893 0.151786 0 0.214286 0H10.0714C10.1339 0 10.1853 0.0200893 10.2254 0.0602679C10.2656 0.100446 10.2857 0.151786 10.2857 0.214286V0.642857C10.2857 0.705357 10.2656 0.756696 10.2254 0.796875C10.1853 0.837054 10.1339 0.857143 10.0714 0.857143H9.42857ZM5.85268 5.59821C6.19643 5.46875 6.52902 5.26228 6.85045 4.97879C7.17188 4.69531 7.46094 4.35491 7.71763 3.95759C7.97433 3.56027 8.1808 3.09152 8.33705 2.55134C8.4933 2.01116 8.57143 1.44643 8.57143 0.857143H1.71429C1.71429 1.44643 1.79241 2.01116 1.94866 2.55134C2.10491 3.09152 2.31138 3.56027 2.56808 3.95759C2.82478 4.35491 3.11384 4.69531 3.43527 4.97879C3.7567 5.26228 4.08929 5.46875 4.43304 5.59821C4.51786 5.62946 4.58594 5.68192 4.63728 5.75558C4.68862 5.82924 4.71429 5.91071 4.71429 6C4.71429 6.08929 4.68862 6.17076 4.63728 6.24442C4.58594 6.31808 4.51786 6.37054 4.43304 6.40179C3.82143 6.62946 3.27679 7.06696 2.79911 7.71429H7.48661C7.00893 7.06696 6.46429 6.62946 5.85268 6.40179C5.76786 6.37054 5.69978 6.31808 5.64844 6.24442C5.5971 6.17076 5.57143 6.08929 5.57143 6C5.57143 5.91071 5.5971 5.82924 5.64844 5.75558C5.69978 5.68192 5.76786 5.62946 5.85268 5.59821Z" fill="#999999"/>
</svg>
