<svg width="14" height="14" viewBox="0 0 14 14" fill="none" xmlns="http://www.w3.org/2000/svg">
<path d="M6.9683 13.6666C5.27608 13.6666 3.8008 13.1138 2.54246 12.0083C1.28469 10.9033 0.556909 9.51159 0.359131 7.83325H1.20163C1.4283 9.26659 2.08135 10.4583 3.1608 11.4083C4.24024 12.3583 5.50941 12.8333 6.9683 12.8333C8.5933 12.8333 9.97163 12.2674 11.1033 11.1358C12.235 10.0041 12.8011 8.62547 12.8016 6.99992C12.8022 5.37436 12.2361 3.99575 11.1033 2.86409C9.97052 1.73242 8.59219 1.16659 6.9683 1.16659C6.10552 1.16659 5.29496 1.34881 4.53663 1.71325C3.7783 2.07714 3.10885 2.57853 2.5283 3.21742H4.5958V4.05075H1.13496V0.590752H1.9683V2.58075C2.61274 1.87353 3.36774 1.32242 4.2333 0.927418C5.09885 0.532418 6.01052 0.334363 6.9683 0.333252C7.89219 0.333252 8.7583 0.507141 9.56663 0.854919C10.375 1.2027 11.0811 1.67881 11.685 2.28325C12.2889 2.8877 12.765 3.59381 13.1133 4.40159C13.4616 5.20936 13.6355 6.07547 13.635 6.99992C13.6344 7.92436 13.4605 8.79047 13.1133 9.59825C12.7661 10.406 12.29 11.1121 11.685 11.7166C11.08 12.321 10.3739 12.7971 9.56663 13.1449C8.75941 13.4927 7.8933 13.6666 6.9683 13.6666ZM9.6383 10.2116L6.59913 7.17325V2.83325H7.43246V6.82658L10.2275 9.62158L9.6383 10.2116Z" fill="#333333"/>
</svg>
