<svg width="16" height="14" viewBox="0 0 16 14" fill="none" xmlns="http://www.w3.org/2000/svg">
<path fill-rule="evenodd" clip-rule="evenodd" d="M15.3783 7.74747L8.02415 0.369141L0.622484 7.74664C0.582637 7.78502 0.550833 7.83095 0.528927 7.88176C0.507021 7.93256 0.495452 7.98722 0.494894 8.04254C0.494337 8.09786 0.504802 8.15274 0.52568 8.20397C0.546558 8.25521 0.57743 8.30177 0.616496 8.34095C0.655561 8.38012 0.702037 8.41113 0.753212 8.43215C0.804387 8.45317 0.859236 8.46379 0.914559 8.46339C0.969882 8.46299 1.02457 8.45158 1.07544 8.42981C1.1263 8.40805 1.17232 8.37638 1.21082 8.33664L2.16665 7.38414V13.25C2.16665 13.3605 2.21055 13.4665 2.28869 13.5446C2.36683 13.6227 2.47281 13.6666 2.58332 13.6666H6.33332C6.44382 13.6666 6.54981 13.6227 6.62795 13.5446C6.70609 13.4665 6.74998 13.3605 6.74998 13.25V9.60831C6.74998 9.4978 6.79388 9.39182 6.87202 9.31368C6.95016 9.23554 7.05614 9.19164 7.16665 9.19164H8.83332C8.94382 9.19164 9.0498 9.23554 9.12794 9.31368C9.20609 9.39182 9.24998 9.4978 9.24998 9.60831V13.25C9.24998 13.3605 9.29388 13.4665 9.37202 13.5446C9.45016 13.6227 9.55614 13.6666 9.66665 13.6666H13.4167C13.5272 13.6666 13.6331 13.6227 13.7113 13.5446C13.7894 13.4665 13.8333 13.3605 13.8333 13.25V7.37789L14.7883 8.33622C14.827 8.37496 14.8729 8.40571 14.9234 8.42671C14.974 8.4477 15.0281 8.45854 15.0829 8.4586C15.1376 8.45866 15.1918 8.44794 15.2424 8.42705C15.293 8.40616 15.339 8.37551 15.3777 8.33685C15.4164 8.29819 15.4472 8.25228 15.4682 8.20174C15.4892 8.1512 15.5 8.09702 15.5001 8.04229C15.5001 7.98756 15.4894 7.93336 15.4685 7.88277C15.4476 7.83219 15.417 7.78621 15.3783 7.74747ZM13 6.54164L8.02207 1.54747L2.99998 6.55331V12.8333H5.91665V9.60831C5.91665 9.27679 6.04835 8.95884 6.28277 8.72442C6.51719 8.49 6.83513 8.35831 7.16665 8.35831H8.83332C9.16484 8.35831 9.48278 8.49 9.7172 8.72442C9.95162 8.95884 10.0833 9.27679 10.0833 9.60831V12.8333H13V6.54164Z" fill="#333333"/>
</svg>
