<svg width="41" height="50" viewBox="0 0 41 50" fill="none" xmlns="http://www.w3.org/2000/svg">
<path d="M8.2 39.3999C3.8104 40.3887 1 41.9055 1 43.6095C1 46.5855 9.5968 48.9999 20.2 48.9999C30.8032 48.9999 39.4 46.5855 39.4 43.6095C39.4 41.9055 36.5896 40.3887 32.2 39.3999" stroke="#333333" stroke-width="1.5" stroke-linecap="round" stroke-linejoin="round"/>
<path d="M23.2179 38.1856C22.4073 38.9655 21.3261 39.4012 20.2011 39.4012C19.0762 39.4012 17.995 38.9655 17.1843 38.1856C9.77075 31.0024 -0.162854 22.9792 4.68035 11.3296C7.30355 5.0296 13.5915 1 20.2011 1C26.8107 1 33.1011 5.032 35.7219 11.3296C40.5603 22.9624 30.6507 31.0264 23.2179 38.1856Z" fill="#333333" stroke="#333333" stroke-width="1.5" stroke-linecap="round" stroke-linejoin="round"/>
<path d="M15.3801 26V23.7841L20.5577 18.9901C20.998 18.5639 21.3674 18.1804 21.6657 17.8395C21.9687 17.4986 22.1983 17.1648 22.3546 16.8381C22.5108 16.5066 22.589 16.1491 22.589 15.7656C22.589 15.3395 22.4919 14.9725 22.2978 14.6648C22.1036 14.3523 21.8385 14.1132 21.5023 13.9474C21.1661 13.777 20.785 13.6918 20.3588 13.6918C19.9138 13.6918 19.5255 13.7817 19.1941 13.9616C18.8626 14.1416 18.6069 14.3996 18.427 14.7358C18.2471 15.072 18.1571 15.4721 18.1571 15.9361H15.2381C15.2381 14.9844 15.4535 14.1581 15.8844 13.4574C16.3153 12.7566 16.919 12.2145 17.6955 11.831C18.472 11.4474 19.3669 11.2557 20.3801 11.2557C21.4218 11.2557 22.3285 11.4403 23.1003 11.8097C23.8768 12.1742 24.4805 12.6809 24.9114 13.3295C25.3423 13.9782 25.5577 14.7216 25.5577 15.5597C25.5577 16.1089 25.4488 16.651 25.231 17.1861C25.0179 17.7211 24.6368 18.3153 24.0875 18.9688C23.5383 19.6174 22.7641 20.3963 21.7651 21.3054L19.6415 23.3864V23.4858H25.7495V26H15.3801Z" fill="white"/>
</svg>
