<svg width="41" height="50" viewBox="0 0 41 50" fill="none" xmlns="http://www.w3.org/2000/svg">
<path d="M8.2 39.4C3.8104 40.3888 1 41.9056 1 43.6096C1 46.5856 9.5968 49 20.2 49C30.8032 49 39.4 46.5856 39.4 43.6096C39.4 41.9056 36.5896 40.3888 32.2 39.4" stroke="#333333" stroke-width="1.5" stroke-linecap="round" stroke-linejoin="round"/>
<path d="M23.2179 38.1856C22.4073 38.9655 21.3261 39.4012 20.2011 39.4012C19.0762 39.4012 17.995 38.9655 17.1843 38.1856C9.77075 31.0024 -0.162854 22.9792 4.68035 11.3296C7.30355 5.0296 13.5915 1 20.2011 1C26.8107 1 33.1011 5.032 35.7219 11.3296C40.5603 22.9624 30.6507 31.0264 23.2179 38.1856Z" fill="#333333" stroke="#333333" stroke-width="1.5" stroke-linecap="round" stroke-linejoin="round"/>
<path d="M22.6145 11.4545V26H19.5392V14.3736H19.454L16.123 16.4616V13.7344L19.7239 11.4545H22.6145Z" fill="white"/>
</svg>
