<svg width="253" height="316" viewBox="0 0 253 316" fill="none" xmlns="http://www.w3.org/2000/svg">
<path opacity="0.08" fill-rule="evenodd" clip-rule="evenodd" d="M36.9918 278.978C60.6772 302.683 92.8015 316 126.298 316C159.794 316 191.918 302.683 215.604 278.978C239.289 255.274 252.595 223.123 252.595 189.6C252.595 136.045 212.492 92.8566 175.797 53.3394C174.591 52.0404 173.389 50.7453 172.191 49.454L126.298 0L80.4043 49.454C79.218 50.733 78.0265 52.0156 76.8314 53.3022C40.1277 92.8147 0 136.013 0 189.6C0 223.123 13.3063 255.274 36.9918 278.978ZM201.041 212.786C195.203 218.624 187.284 221.904 179.028 221.904H153.17V247.831H136.77V221.904H124.892V247.831H107.949V221.904H65.3208V247.831H48.4986V159.741H65.381V206.392H179.028C183.17 206.392 187.143 204.746 190.072 201.817C193.002 198.888 194.647 194.915 194.647 190.772C194.647 186.63 193.002 182.657 190.072 179.728C187.143 176.799 183.17 175.153 179.028 175.153H131.283V159.64H179.028C187.285 159.64 195.203 162.92 201.041 168.759C206.88 174.597 210.16 182.516 210.16 190.772C210.16 199.029 206.88 206.948 201.041 212.786ZM108.238 159.741H125.12V200.449H108.238V159.741Z" fill="white"/>
</svg>
