<svg width="28" height="30" viewBox="0 0 28 30" fill="none" xmlns="http://www.w3.org/2000/svg">
<path fill-rule="evenodd" clip-rule="evenodd" d="M17.9767 15.5558C17.7469 14.9058 17.3212 14.343 16.7583 13.9449C16.1953 13.5469 15.5228 13.3332 14.8333 13.3333V12.5H13.1667V13.3333C12.2826 13.3333 11.4348 13.6845 10.8096 14.3096C10.1845 14.9348 9.83334 15.7826 9.83334 16.6667C9.83334 17.5507 10.1845 18.3986 10.8096 19.0237C11.4348 19.6488 12.2826 20 13.1667 20V23.3333C12.4417 23.3333 11.8242 22.8708 11.5942 22.2225C11.56 22.1164 11.505 22.0183 11.4323 21.9339C11.3596 21.8494 11.2706 21.7804 11.1708 21.731C11.071 21.6815 10.9622 21.6526 10.851 21.6459C10.7398 21.6392 10.6283 21.6549 10.5233 21.692C10.4182 21.7291 10.3217 21.7869 10.2393 21.862C10.157 21.9371 10.0906 22.0279 10.044 22.1291C9.99735 22.2303 9.97151 22.3399 9.96796 22.4512C9.96442 22.5626 9.98325 22.6735 10.0233 22.7775C10.2531 23.4275 10.6788 23.9904 11.2417 24.3884C11.8047 24.7864 12.4772 25.0001 13.1667 25V25.8333H14.8333V25C15.7174 25 16.5652 24.6488 17.1904 24.0237C17.8155 23.3986 18.1667 22.5507 18.1667 21.6667C18.1667 20.7826 17.8155 19.9348 17.1904 19.3096C16.5652 18.6845 15.7174 18.3333 14.8333 18.3333V15C15.178 14.9999 15.5142 15.1067 15.7957 15.3056C16.0772 15.5046 16.2901 15.7859 16.405 16.1108C16.4786 16.3192 16.632 16.4899 16.8314 16.5852C16.9301 16.6324 17.0372 16.6597 17.1465 16.6655C17.2558 16.6714 17.3651 16.6556 17.4683 16.6192C17.5715 16.5827 17.6665 16.5263 17.7479 16.4532C17.8293 16.38 17.8955 16.2915 17.9427 16.1928C17.9899 16.094 18.0172 15.987 18.023 15.8777C18.0289 15.7684 18.0131 15.659 17.9767 15.5558ZM13.1667 15C12.7246 15 12.3007 15.1756 11.9882 15.4882C11.6756 15.8007 11.5 16.2246 11.5 16.6667C11.5 17.1087 11.6756 17.5326 11.9882 17.8452C12.3007 18.1577 12.7246 18.3333 13.1667 18.3333V15ZM14.8333 23.3333C15.2754 23.3333 15.6993 23.1577 16.0118 22.8452C16.3244 22.5326 16.5 22.1087 16.5 21.6667C16.5 21.2246 16.3244 20.8007 16.0118 20.4882C15.6993 20.1756 15.2754 20 14.8333 20V23.3333Z" fill="#333333"/>
<path fill-rule="evenodd" clip-rule="evenodd" d="M4.96083 2.18417C7.00583 1.18333 10.3608 0 14.0325 0C17.6275 0 20.8942 1.13417 22.9283 2.12167L23.0433 2.1775C23.6567 2.48083 24.1517 2.7675 24.5 3L21.4217 7.5C28.5183 14.755 34 29.9975 14.0325 29.9975C-5.935 29.9975 -0.600832 15.0317 6.5575 7.5L3.49917 3C3.735 2.84583 4.03417 2.66667 4.39083 2.47667C4.5675 2.38167 4.7575 2.28361 4.96083 2.18417ZM19.4433 7.44083L21.9075 3.83833C19.6158 4.00333 16.8892 4.54167 14.2642 5.30167C12.3892 5.84333 10.3058 5.76083 8.37667 5.405C7.8905 5.31499 7.4077 5.2077 6.92917 5.08333L8.52917 7.43917C11.9583 8.66 16.0133 8.66 19.4433 7.44083ZM7.56667 8.85833C11.5792 10.4083 16.4017 10.4083 20.4142 8.85667C22.0886 10.6226 23.4897 12.6289 24.5708 14.8092C25.6975 17.1075 26.3108 19.405 26.2108 21.385C26.1142 23.2958 25.3625 24.9283 23.6458 26.1417C21.8567 27.4058 18.8475 28.3308 14.0317 28.3308C9.21084 28.3308 6.1875 27.4217 4.38167 26.1717C2.6525 24.9742 1.89334 23.3633 1.78584 21.4783C1.67334 19.52 2.27333 17.2342 3.39583 14.92C4.46667 12.7133 5.96083 10.5892 7.56667 8.85833ZM6.60834 3.26333C7.275 3.46167 7.97167 3.63417 8.67833 3.765C10.47 4.095 12.2667 4.14333 13.8 3.69917C15.5868 3.17842 17.4042 2.76902 19.2417 2.47333C17.7083 2.01167 15.915 1.66667 14.0317 1.66667C11.1608 1.66667 8.48333 2.4675 6.60834 3.26333Z" fill="#333333"/>
</svg>
