<svg width="18" height="18" viewBox="0 0 18 18" fill="none" xmlns="http://www.w3.org/2000/svg">
<path d="M9 16.6191C13.2079 16.6191 16.619 13.2079 16.619 9.00003C16.619 4.79215 13.2079 1.38098 9 1.38098C4.79211 1.38098 1.38095 4.79215 1.38095 9.00003C1.38095 13.2079 4.79211 16.6191 9 16.6191Z" stroke="#333333" stroke-linecap="round" stroke-linejoin="round"/>
<path fill-rule="evenodd" clip-rule="evenodd" d="M9 9.95237C9.47619 9.95237 9.95238 9.47618 9.95238 8.99999C9.95238 8.5238 9.47619 8.04761 9 8.04761C8.52381 8.04761 8.04857 8.5238 8.04857 8.99999C8.04857 9.47618 8.52381 9.95237 9 9.95237ZM5.19047 9.95237C5.66666 9.95237 6.14285 9.47618 6.14285 8.99999C6.14285 8.5238 5.66666 8.04761 5.19047 8.04761C4.71428 8.04761 4.23904 8.5238 4.23904 8.99999C4.23904 9.47618 4.71428 9.95237 5.19047 9.95237ZM12.8095 9.95237C13.2857 9.95237 13.7619 9.47618 13.7619 8.99999C13.7619 8.5238 13.2857 8.04761 12.8095 8.04761C12.3333 8.04761 11.8581 8.5238 11.8581 8.99999C11.8581 9.47618 12.3333 9.95237 12.8095 9.95237Z" fill="#333333"/>
</svg>
