<svg width="14" height="14" viewBox="0 0 14 14" fill="none" xmlns="http://www.w3.org/2000/svg">
<path d="M12.1692 1H8.62404C8.51381 0.99992 8.40802 1.04348 8.32981 1.12115L1.24231 8.20865C1.08712 8.3646 1 8.57566 1 8.79567C1 9.01568 1.08712 9.22674 1.24231 9.38269L4.61731 12.7577C4.77326 12.9129 4.98432 13 5.20433 13C5.42434 13 5.6354 12.9129 5.79135 12.7577L12.876 5.67308C12.9536 5.59486 12.9972 5.48908 12.9971 5.37885V1.83077C12.9976 1.72177 12.9766 1.61373 12.9352 1.51289C12.8939 1.41204 12.8329 1.32037 12.756 1.24316C12.6791 1.16595 12.5876 1.10471 12.4869 1.06298C12.3862 1.02125 12.2782 0.999847 12.1692 1Z" stroke="#999999" stroke-linecap="round" stroke-linejoin="round"/>
<path d="M10.691 4.23068C10.5085 4.23068 10.33 4.17654 10.1782 4.07511C10.0264 3.97368 9.90808 3.82951 9.83821 3.66084C9.76834 3.49217 9.75006 3.30657 9.78568 3.12752C9.8213 2.94846 9.90921 2.78398 10.0383 2.65488C10.1674 2.52579 10.3319 2.43788 10.5109 2.40226C10.69 2.36664 10.8756 2.38492 11.0443 2.45479C11.2129 2.52465 11.3571 2.64297 11.4585 2.79476C11.56 2.94656 11.6141 3.12503 11.6141 3.3076C11.6141 3.55241 11.5168 3.7872 11.3437 3.96031C11.1706 4.13342 10.9358 4.23068 10.691 4.23068Z" fill="#999999"/>
</svg>
