<svg width="13" height="13" viewBox="0 0 13 13" fill="none" xmlns="http://www.w3.org/2000/svg">
<path d="M6.58337 7.66675C10.0334 7.66675 12.8334 8.97508 12.8334 10.5834V12.6667H0.333374V10.5834C0.333374 8.97508 3.13337 7.66675 6.58337 7.66675ZM12 10.5834C12 9.43341 9.57504 8.50008 6.58337 8.50008C3.59171 8.50008 1.16671 9.43341 1.16671 10.5834V11.8334H12V10.5834ZM6.58337 0.166748C7.35692 0.166748 8.09879 0.474039 8.64577 1.02102C9.19275 1.568 9.50004 2.30987 9.50004 3.08341C9.50004 3.85696 9.19275 4.59883 8.64577 5.14581C8.09879 5.69279 7.35692 6.00008 6.58337 6.00008C5.80983 6.00008 5.06796 5.69279 4.52098 5.14581C3.974 4.59883 3.66671 3.85696 3.66671 3.08341C3.66671 2.30987 3.974 1.568 4.52098 1.02102C5.06796 0.474039 5.80983 0.166748 6.58337 0.166748ZM6.58337 1.00008C6.03084 1.00008 5.50094 1.21957 5.11023 1.61028C4.71953 2.00098 4.50004 2.53088 4.50004 3.08341C4.50004 3.63595 4.71953 4.16585 5.11023 4.55655C5.50094 4.94725 6.03084 5.16675 6.58337 5.16675C7.13591 5.16675 7.66581 4.94725 8.05651 4.55655C8.44721 4.16585 8.66671 3.63595 8.66671 3.08341C8.66671 2.53088 8.44721 2.00098 8.05651 1.61028C7.66581 1.21957 7.13591 1.00008 6.58337 1.00008Z" fill="#333333"/>
</svg>
